HIERARCHY
ROOT Hips
{
	OFFSET -0.001795 -0.223333 0.028219
	CHANNELS 6 Xposition Yposition Zposition Zrotation Yrotation Xrotation 
	JOINT LeftUpLeg
	{
		OFFSET 0.069520 -0.091406 -0.006815
		CHANNELS 3 Zrotation Yrotation Xrotation
		JOINT LeftLeg
		{
			OFFSET 0.034277 -0.375199 -0.004496
			CHANNELS 3 Zrotation Yrotation Xrotation
			JOINT LeftFoot
			{
				OFFSET -0.013596 -0.397961 -0.043693
				CHANNELS 3 Zrotation Yrotation Xrotation
				JOINT LeftToe
				{
					OFFSET 0.026358 -0.055791 0.119288
					CHANNELS 3 Zrotation Yrotation Xrotation
					End Site
					{
						OFFSET 0.000000 0.000000 0.000000
					}
				}
			}
		}
	}
	JOINT RightUpLeg
	{
		OFFSET -0.067670 -0.090522 -0.004320
		CHANNELS 3 Zrotation Yrotation Xrotation
		JOINT RightLeg
		{
			OFFSET -0.038290 -0.382569 -0.008850
			CHANNELS 3 Zrotation Yrotation Xrotation
			JOINT RightFoot
			{
				OFFSET 0.015774 -0.398415 -0.042312
				CHANNELS 3 Zrotation Yrotation Xrotation
				JOINT RightToe
				{
					OFFSET -0.025372 -0.048144 0.123348
					CHANNELS 3 Zrotation Yrotation Xrotation
					End Site
					{
						OFFSET 0.000000 0.000000 0.000000
					}
				}
			}
		}
	}
	JOINT Spine
	{
		OFFSET -0.002533 0.108963 -0.026696
		CHANNELS 3 Zrotation Yrotation Xrotation
		JOINT Spine1
		{
			OFFSET 0.005487 0.135180 0.001092
			CHANNELS 3 Zrotation Yrotation Xrotation
			JOINT Spine2
			{
				OFFSET 0.001457 0.052922 0.025425
				CHANNELS 3 Zrotation Yrotation Xrotation
				JOINT Neck
				{
					OFFSET -0.002778 0.213870 -0.042857
					CHANNELS 3 Zrotation Yrotation Xrotation
					JOINT Head
					{
						OFFSET 0.005152 0.064970 0.051349
						CHANNELS 3 Zrotation Yrotation Xrotation
						End Site
						{
							OFFSET 0.000000 0.000000 0.000000
						}
					}
				}
				JOINT LeftShoulder
				{
					OFFSET 0.078845 0.121749 -0.034090
					CHANNELS 3 Zrotation Yrotation Xrotation
					JOINT LeftArm
					{
						OFFSET 0.090977 0.030469 -0.008868
						CHANNELS 3 Zrotation Yrotation Xrotation
						JOINT LeftForeArm
						{
							OFFSET 0.259612 -0.012772 -0.027456
							CHANNELS 3 Zrotation Yrotation Xrotation
							JOINT LeftHand
							{
								OFFSET 0.249234 0.008986 -0.001171
								CHANNELS 3 Zrotation Yrotation Xrotation
								End Site
								{
									OFFSET 0.000000 0.000000 0.000000
								}
							}
						}
					}
				}
				JOINT RightShoulder
				{
					OFFSET -0.081759 0.118833 -0.038615
					CHANNELS 3 Zrotation Yrotation Xrotation
					JOINT RightArm
					{
						OFFSET -0.096012 0.032551 -0.009143
						CHANNELS 3 Zrotation Yrotation Xrotation
						JOINT RightForeArm
						{
							OFFSET -0.253742 -0.013329 -0.021401
							CHANNELS 3 Zrotation Yrotation Xrotation
							JOINT RightHand
							{
								OFFSET -0.255298 0.007772 -0.005559
								CHANNELS 3 Zrotation Yrotation Xrotation
								End Site
								{
									OFFSET 0.000000 0.000000 0.000000
								}
							}
						}
					}
				}
			}
		}
	}
}
MOTION
Frames: 13
Frame Time: 0.050000
0.094176 0.943717 0.285051 7.616503 -65.832673 2.190147 -1.540414 -0.412314 -5.364535 -1.668270 1.124872 -13.256428 13.193964 19.487413 16.315859 0.000000 0.000000 0.000000 -7.841708 2.084868 -12.996321 -0.067361 0.496666 -6.453121 10.392111 5.588402 13.121950 0.000000 0.000000 0.000000 12.268352 -0.162239 16.440239 14.831370 -2.623664 8.551277 -5.919976 0.511415 -3.020402 10.178261 -5.651618 -22.333466 0.000000 0.000000 0.000000 -2.900622 -40.049558 19.208059 -10.846607 -33.711724 0.940816 28.024541 -40.070690 -7.659789 0.000000 0.000000 0.000000 23.572803 39.558639 11.861578 25.382126 16.484089 3.102915 1.153287 49.865821 -0.218173 0.000000 0.000000 0.000000 
0.094497 0.943316 0.286361 7.766032 -66.742792 2.073543 -1.758202 -0.424088 -5.112752 -1.385679 1.072774 -13.088023 13.497142 20.310688 15.815124 0.000000 0.000000 0.000000 -8.095201 2.147596 -13.076743 0.058366 0.579017 -6.983173 10.822511 5.966073 13.433113 0.000000 0.000000 0.000000 12.019465 -0.122734 16.414383 14.881853 -2.483513 8.818809 -5.728019 0.040529 -3.074613 9.772136 -5.555444 -21.947375 0.000000 0.000000 0.000000 -2.783042 -39.644412 19.111253 -10.819281 -33.175992 0.902496 27.817976 -40.660960 -7.641856 0.000000 0.000000 0.000000 23.999403 39.651227 11.565826 26.126155 15.958264 3.225660 3.767105 51.082777 0.785339 0.000000 0.000000 0.000000 
0.094999 0.943230 0.287315 7.511374 -67.546300 2.498695 -1.689528 -0.415109 -5.345488 -1.029478 0.990847 -12.807503 13.601539 20.496140 15.662665 0.000000 0.000000 0.000000 -7.856628 2.156387 -13.269245 -0.048101 0.647159 -7.555036 11.353510 6.083486 14.063799 0.000000 0.000000 0.000000 11.609018 -0.096557 16.364235 15.043984 -2.364956 9.020649 -5.549795 -0.333837 -3.121170 9.767352 -5.627317 -21.481906 0.000000 0.000000 0.000000 -3.370082 -39.282761 19.390130 -10.292707 -32.472514 0.717753 27.605321 -40.423890 -7.513360 0.000000 0.000000 0.000000 24.799256 39.610658 11.274998 27.075076 15.144511 3.309204 6.249785 52.543075 1.818683 0.000000 0.000000 0.000000 
0.095614 0.942950 0.288004 7.263289 -68.753571 2.780486 -1.692719 -0.405908 -5.452956 -0.612842 0.905449 -12.540033 14.065406 21.288582 15.649769 0.000000 0.000000 0.000000 -7.779959 2.185722 -13.394965 0.257817 0.781725 -8.093426 11.875551 6.349847 14.555248 0.000000 0.000000 0.000000 11.287928 -0.034092 16.507114 14.717289 -2.124397 9.000635 -5.124873 -0.502569 -2.800742 9.341178 -5.527209 -21.340172 0.000000 0.000000 0.000000 -3.533427 -38.619935 19.329613 -9.849578 -32.265891 0.616101 27.090632 -40.137057 -7.237818 0.000000 0.000000 0.000000 25.398989 39.499558 10.732255 27.988991 14.524258 3.448974 9.425751 53.742985 3.148504 0.000000 0.000000 0.000000 
0.096337 0.943104 0.288602 6.797622 -69.476886 3.327185 -1.461796 -0.360530 -5.408488 -0.516150 0.913916 -12.689228 14.279240 21.470088 15.891450 0.000000 0.000000 0.000000 -7.441922 2.166944 -13.490173 0.219480 0.864516 -8.583128 12.435557 6.534722 15.163784 0.000000 0.000000 0.000000 11.056398 0.008668 16.675691 14.539200 -1.987676 8.905123 -4.805187 -0.800568 -2.442355 9.368135 -5.637451 -20.974163 0.000000 0.000000 0.000000 -3.829246 -38.539910 19.610359 -9.387376 -31.441792 0.461314 27.398738 -40.122422 -7.347823 0.000000 0.000000 0.000000 25.968538 39.401222 10.248793 29.008242 13.865887 3.565342 10.988420 54.729061 3.744192 0.000000 0.000000 0.000000 
0.097156 0.942992 0.289376 6.362662 -70.260792 3.679816 -1.371670 -0.339695 -5.473904 -0.393955 0.864804 -12.418455 14.747236 22.285679 15.933380 0.000000 0.000000 0.000000 -7.204994 2.144955 -13.472544 0.237898 0.924929 -8.827995 12.960032 7.101720 15.439679 0.000000 0.000000 0.000000 10.756101 0.041409 16.630496 14.418536 -1.831422 9.050862 -4.590749 -1.414278 -2.352738 8.717407 -5.441448 -20.492645 0.000000 0.000000 0.000000 -4.395807 -38.024959 19.868846 -9.218723 -31.181922 0.386789 27.113678 -39.623730 -7.146797 0.000000 0.000000 0.000000 26.362268 39.415057 9.777980 30.084065 13.290188 3.707298 12.860832 55.212677 4.450869 0.000000 0.000000 0.000000 
0.098111 0.942699 0.290352 5.733978 -70.822628 4.043618 -1.139427 -0.284273 -5.119004 -0.369972 0.851787 -12.317269 15.019619 22.990418 15.697536 0.000000 0.000000 0.000000 -6.803274 2.084114 -13.371809 -0.031159 0.919859 -8.926729 13.329309 7.299821 15.743228 0.000000 0.000000 0.000000 10.870524 0.096492 16.965356 14.552281 -1.817264 9.054811 -4.710987 -2.183603 -2.196728 8.766636 -5.531886 -20.415724 0.000000 0.000000 0.000000 -4.547950 -37.839477 20.030543 -9.729990 -30.875988 0.440404 28.017627 -39.961639 -7.504613 0.000000 0.000000 0.000000 26.702675 39.670661 9.444270 30.913280 12.958255 3.886215 13.797510 55.301878 4.663283 0.000000 0.000000 0.000000 
0.099338 0.942669 0.291591 5.294734 -71.427741 4.033965 -1.008859 -0.239593 -4.726816 -0.326156 0.835393 -12.203445 15.383279 23.634245 15.825027 0.000000 0.000000 0.000000 -6.367440 1.996662 -13.102332 -0.236846 0.884126 -8.708501 13.929150 8.320958 15.782826 0.000000 0.000000 0.000000 10.869178 0.165944 17.273845 14.440877 -1.736268 9.086350 -4.786453 -2.626445 -1.873176 8.661202 -5.543658 -20.521798 0.000000 0.000000 0.000000 -4.806329 -37.925952 20.336901 -10.281747 -31.171747 0.546362 29.108628 -40.335556 -7.973332 0.000000 0.000000 0.000000 27.440845 39.726258 9.044377 31.399286 12.662959 4.045478 14.073914 55.277001 4.637961 0.000000 0.000000 0.000000 
0.100966 0.942461 0.292811 5.042900 -71.658641 4.030022 -0.890712 -0.210156 -4.593627 -0.373322 0.813854 -11.963691 15.612253 24.219397 15.665660 0.000000 0.000000 0.000000 -6.112891 1.943728 -12.953481 -0.423546 0.849109 -8.579972 13.959018 8.672677 15.536420 0.000000 0.000000 0.000000 10.913422 0.189366 17.397575 14.479079 -1.689018 9.297523 -4.948391 -3.132666 -1.835933 8.538639 -5.505983 -20.628588 0.000000 0.000000 0.000000 -5.400571 -38.182237 20.883523 -11.171452 -31.422418 0.681838 30.462084 -40.744559 -8.582518 0.000000 0.000000 0.000000 27.791688 39.824453 8.857964 31.856466 12.540675 4.174293 13.919535 55.125882 4.419301 0.000000 0.000000 0.000000 
0.102941 0.942709 0.293942 4.629332 -72.074750 4.080576 -0.716240 -0.164450 -4.372608 -0.514158 0.821948 -11.836173 15.731639 24.316411 15.851256 0.000000 0.000000 0.000000 -6.064946 1.934100 -12.900948 -0.138218 0.865564 -8.312492 14.218187 8.823203 15.760234 0.000000 0.000000 0.000000 10.803681 0.233761 17.556260 14.373735 -1.620355 9.299321 -5.177100 -3.340227 -1.616249 8.892285 -5.692286 -20.761884 0.000000 0.000000 0.000000 -6.237276 -38.783767 21.728671 -11.734914 -31.921138 0.783438 32.129018 -40.852100 -9.306687 0.000000 0.000000 0.000000 28.637353 39.923872 8.714747 31.754863 12.313814 4.228173 13.449708 55.033522 4.210138 0.000000 0.000000 0.000000 
0.105077 0.942770 0.294765 4.181682 -72.238417 4.241496 -0.351464 -0.091341 -4.097408 -0.804841 0.890526 -12.027125 15.631311 24.208052 15.765147 0.000000 0.000000 0.000000 -6.032388 1.896403 -12.641032 0.053763 0.914283 -8.447798 14.353012 8.937460 15.851101 0.000000 0.000000 0.000000 10.834653 0.241616 17.551411 14.400805 -1.525610 9.844422 -5.611117 -3.517134 -1.742416 8.478553 -5.471627 -21.214248 0.000000 0.000000 0.000000 -6.985901 -39.477338 22.484631 -12.007000 -32.073723 0.805268 33.857762 -40.224465 -9.862335 0.000000 0.000000 0.000000 28.651588 40.247747 9.061306 31.767960 12.522168 4.253199 11.683619 55.186629 3.382240 0.000000 0.000000 0.000000 
0.107170 0.942841 0.295165 3.621236 -72.420134 4.632030 0.019848 -0.021993 -4.019969 -1.114864 0.952187 -12.136414 15.784941 24.407821 15.892994 0.000000 0.000000 0.000000 -6.005244 1.901819 -12.705216 0.454575 0.950763 -8.251117 14.241720 8.757104 15.817481 0.000000 0.000000 0.000000 10.752930 0.245581 17.516247 14.245502 -1.411052 10.117987 -5.747507 -3.582054 -1.699086 8.627831 -5.542081 -21.172247 0.000000 0.000000 0.000000 -8.185728 -39.944194 23.434359 -11.972884 -32.394497 0.762476 35.877251 -39.558099 -10.519337 0.000000 0.000000 0.000000 28.867534 40.545710 9.328117 31.582363 12.824047 4.299045 10.817869 54.889321 3.020513 0.000000 0.000000 0.000000 
0.109077 0.942688 0.295308 2.568828 -72.343134 5.402322 0.498989 0.069562 -3.837575 -1.105705 0.959304 -12.215637 15.493329 24.189509 15.434022 0.000000 0.000000 0.000000 -5.768936 1.825940 -12.361401 0.458167 0.977829 -8.467437 14.369632 8.892483 15.880107 0.000000 0.000000 0.000000 10.872671 0.197086 17.213967 14.054561 -1.267117 10.574715 -6.028447 -3.583262 -1.941973 8.601420 -5.496641 -21.248728 0.000000 0.000000 0.000000 -8.982576 -40.176678 23.971794 -12.101175 -32.822010 0.775699 37.465361 -37.926765 -10.642509 0.000000 0.000000 0.000000 29.276801 40.964283 9.805816 31.245048 13.023400 4.313957 9.987297 54.563306 2.736611 0.000000 0.000000 0.000000 
